<?xml version="1.0" standalone="no"?>
<!DOCTYPE svg PUBLIC "-//W3C//DTD SVG 20010904//EN"
 "http://www.w3.org/TR/2001/REC-SVG-20010904/DTD/svg10.dtd">
<svg version="1.0" xmlns="http://www.w3.org/2000/svg"
 width="260.000000pt" height="260.000000pt" viewBox="0 0 260.000000 260.000000"
 preserveAspectRatio="xMidYMid meet">
<metadata>
Created by potrace 1.11, written by Peter Selinger 2001-2013
</metadata>
<g transform="translate(0.000000,260.000000) scale(0.100000,-0.100000)"
fill="#000000" stroke="none">
<path d="M1250 2587 c-3 -2 -28 -7 -57 -11 -28 -3 -63 -10 -77 -16 -14 -5 -26
-7 -26 -5 0 10 -152 -66 -207 -103 -65 -44 -163 -144 -210 -212 -115 -169
-164 -367 -158 -635 4 -169 5 -180 30 -290 77 -332 332 -582 635 -622 19 -2
44 -6 55 -8 11 -2 23 -4 27 -4 4 -1 -20 -48 -53 -105 -32 -57 -59 -108 -59
-115 0 -6 24 -23 54 -38 l54 -26 47 23 c29 14 73 25 116 28 123 9 199 -40 199
-127 0 -90 -50 -131 -165 -139 -89 -6 -162 14 -230 62 -56 40 -55 41 -113 -43
l-41 -58 22 -20 c77 -71 190 -113 315 -117 103 -3 158 6 226 38 120 56 179
145 177 269 -1 129 -68 216 -195 252 -72 21 -175 15 -240 -13 l-45 -20 52 78
c50 75 54 78 97 84 223 30 437 199 537 424 22 49 76 242 70 248 -2 2 -189 41
-234 49 -36 6 -39 3 -47 -47 -15 -93 -86 -231 -159 -306 -107 -110 -260 -153
-424 -119 -222 47 -365 212 -418 482 -14 71 -15 357 -1 420 47 211 150 366
292 435 27 13 57 27 66 31 47 23 195 30 275 13 173 -35 305 -185 362 -410 l11
-41 130 26 c151 29 144 20 105 151 -80 268 -295 473 -552 525 -40 8 -237 18
-243 12z"/>
</g>
</svg>
